<?xml version="1.0" encoding="UTF-8" standalone="no"?>
<!-- Created with Inkscape (http://www.inkscape.org/) -->

<svg
   xmlns:dc="http://purl.org/dc/elements/1.1/"
   xmlns:cc="http://creativecommons.org/ns#"
   xmlns:rdf="http://www.w3.org/1999/02/22-rdf-syntax-ns#"
   xmlns:svg="http://www.w3.org/2000/svg"
   xmlns="http://www.w3.org/2000/svg"
   xmlns:sodipodi="http://sodipodi.sourceforge.net/DTD/sodipodi-0.dtd"
   xmlns:inkscape="http://www.inkscape.org/namespaces/inkscape"
   width="1000"
   height="1000"
   viewBox="0 0 264.58333 264.58334"
   version="1.1"
   id="svg8"
   inkscape:version="0.92.4 (fd57863, 2020-04-02)"
   sodipodi:docname="mediestetica_isotipo.png">
  <defs
     id="defs2" />
  <sodipodi:namedview
     id="base"
     pagecolor="#ffffff"
     bordercolor="#666666"
     borderopacity="1.0"
     inkscape:pageopacity="0.0"
     inkscape:pageshadow="2"
     inkscape:zoom="0.08"
     inkscape:cx="-4727.1725"
     inkscape:cy="286.54559"
     inkscape:document-units="px"
     inkscape:current-layer="layer1"
     showgrid="false"
     units="px"
     inkscape:snap-page="true"
     inkscape:window-width="1600"
     inkscape:window-height="836"
     inkscape:window-x="0"
     inkscape:window-y="27"
     inkscape:window-maximized="1" />
  <metadata
     id="metadata5">
    <rdf:RDF>
      <cc:Work
         rdf:about="">
        <dc:format>image/svg+xml</dc:format>
        <dc:type
           rdf:resource="http://purl.org/dc/dcmitype/StillImage" />
        <dc:title></dc:title>
      </cc:Work>
    </rdf:RDF>
  </metadata>
  <g
     inkscape:label="Capa 1"
     inkscape:groupmode="layer"
     id="layer1"
     transform="translate(0,-32.41665)">
    <g
       id="g27"
       transform="matrix(0.36387242,0,0,0.36398983,-176.95098,182.67103)">
      <path
         sodipodi:nodetypes="csssssssscccccssccccscsccscsssccscccsccscccsscccsccccsccccccccccscscccccccccccsccccccccsccsccccsccccsccccccccccccccc"
         inkscape:connector-curvature="0"
         id="path21"
         d="m 834.07427,313.94826 c -37.1882,-1.80454 -71.8611,-8.51784 -105.4365,-20.41438 -83.748,-29.67394 -153.91619,-89.1781 -197.12354,-167.165 -36.62294,-66.102467 -51.62635,-142.885049 -42.70415,-218.545827 11.3888,-96.577383 60.97939,-184.325413 138.09546,-244.352783 26.83093,-20.88526 57.04693,-38.17327 88.76773,-50.78825 36.0691,-14.34426 71.9153,-22.29289 112.8448,-25.02252 6.8977,-0.46002 28.5048,-0.61768 36.5124,-0.26641 45.5878,1.99976 88.4142,11.78761 129.5136,29.59993 50.27943,21.79089 95.46743,55.17864 131.49293,97.15504 26.1233,30.43861 47.3747,65.64053 62.0545,102.79062 13.3757,33.84933 21.5994,69.59258 24.3197,105.701043 1.3574,18.01884 1.3605,38.512033 0.01,55.959371 -6.3311,81.692455 -39.3725,157.690966 -94.8434,218.148936 -4.7851,5.21529 -17.4446,17.82051 -22.6227,22.5257 -48.2188,43.815 -105.92573,73.5271 -168.93653,86.98187 -17.8341,3.80813 -34.8836,6.10114 -55.4302,7.45488 -5.5953,0.36867 -30.4761,0.53067 -36.5125,0.23778 z M 1072.1993,79.793906 c 23.6023,-1.988106 43.5587,-10.075307 61.1141,-24.766163 15.5591,-13.020304 26.7086,-29.840527 33.2986,-50.2349 1.2019,-3.719301 2.8217,-9.659355 2.8217,-10.347325 0,-0.306705 -1.3605,-0.368167 -8.136,-0.367453 h -8.1359 l -1.4139,4.430924 c -4.2498,13.318145 -10.1619,24.390878 -18.2186,34.121908 -2.9596,3.574679 -9.8894,10.284856 -13.578,13.147701 -13.8346,10.737505 -27.9633,16.505025 -46.1645,18.845 -4.6145,0.593248 -17.9687,0.682889 -22.4896,0.150971 -14.965,-1.760749 -27.3511,-6.155293 -38.6546,-13.714518 -8.8487,-5.917591 -18.03133,-15.096595 -24.84673,-24.836806 -14.5652,-20.814981 -22.356,-48.589986 -22.356,-79.700352 v -5.89151 h 104.51043 104.5104 v -9.40292 c 0,-18.42749 -1.4506,-32.195453 -4.9193,-46.688743 -7.4891,-31.29161 -23.7584,-55.33734 -47.6004,-70.3526 -3.631,-2.28669 -12.4646,-6.59135 -16.8791,-8.22523 -12.8049,-4.7393 -27.3737,-7.15227 -43.1363,-7.14455 -37.5332,0.0185 -66.34513,14.18786 -87.31713,42.94198 -13.1947,18.09081 -21.7121,41.56212 -25.0297,68.974153 -1.2303,10.16563 -1.4539,14.58034 -1.4539,28.70729 0,14.12695 0.2236,18.541655 1.4539,28.70729 2.6841,22.177956 8.7796,41.776648 18.1035,58.20833 2.2101,3.894825 7.6519,11.897624 10.6149,15.610416 3.4482,4.320672 12.1152,13.055652 16.1146,16.24105 15.86273,12.634065 34.22863,19.646714 56.48853,21.569097 3.6691,0.316865 17.6067,0.327951 21.299,0.01693 z M 966.06927,-77.558717 c 0.6829,-10.90721 2.9301,-24.142283 5.8593,-34.510193 10.4736,-37.07034 35.19663,-63.32137 67.19783,-71.35113 18.7345,-4.70088 38.7774,-4.10708 55.5645,1.64621 11.0917,3.80137 20.7646,9.82051 29.5968,18.41706 17.5412,17.07348 28.0035,40.0717 31.2374,68.666283 0.4385,3.87757 0.8466,9.95685 1.0701,15.94114 l 0.1507,4.0349 h -95.4274 -95.42743 z m -409.86254,67.071873 c 0.0691,-60.053903 0.18224,-84.558243 0.40386,-87.510933 1.17126,-15.603493 2.10314,-22.721733 3.92485,-29.980153 3.52097,-14.029 10.48266,-26.50974 20.17943,-36.1773 6.48658,-6.46702 14.049,-11.49688 22.79324,-15.16007 18.95258,-7.93972 43.20936,-8.94148 61.74536,-2.55 9.3659,3.22951 16.7716,7.7837 23.1677,14.24723 11.0362,11.15259 16.3376,25.82836 17.9809,49.77654 0.6918,10.08155 0.798,24.058803 0.8012,105.502603 v 85.261974 h 8.0584 8.0584 l 0.1027,-82.219266 c 0.072,-58.095168 0.1917,-83.539008 0.4064,-86.717188 1.1715,-17.341983 2.5429,-27.004883 4.9688,-35.010273 4.139,-13.65851 10.6969,-24.79614 19.7562,-33.55303 12.0522,-11.64981 27.8469,-18.7284 46.623,-20.8947 5.5085,-0.63555 16.0827,-0.63825 21.2974,-0.006 16.5003,2.00234 29.7941,7.97256 39.343,17.66891 3.2491,3.29924 4.5017,4.83642 6.8035,8.34953 5.6224,8.58105 9.3022,21.26083 10.7341,36.98668 0.8718,9.57506 0.8915,11.63172 0.9865,103.385942 l 0.095,92.008849 h 8.4581 8.4581 V -19.75233 c 0,-90.0834 -0.048,-96.2438 -0.8066,-103.77829 -4.1738,-41.44983 -23.347,-66.55435 -57.0691,-74.7238 -12.3015,-2.98017 -28.5283,-3.74473 -42.1368,-1.98539 -27.1392,3.50864 -49.5238,17.75958 -65.2166,41.51961 -1.6672,2.52428 -3.6144,5.81925 -6.2154,10.51742 l -0.6959,1.25701 -1.3804,-4.16742 c -8.0993,-24.45195 -25.6285,-40.52887 -51.2427,-46.99733 -8.6627,-2.18763 -15.3271,-2.91711 -26.7229,-2.92505 -9.3991,-0.007 -12.53692,0.22741 -19.70882,1.46942 -26.08482,4.51726 -47.37756,19.2754 -61.31991,42.50124 -1.2006,2.00001 -2.29495,3.81497 -2.43184,4.03325 -0.15682,0.25001 -0.25469,-7.55856 -0.26451,-21.10052 l -0.0156,-21.49729 h -8.46667 -8.46667 V -61.352987 72.923047 h 8.45728 8.45724 z m 367.19444,-42.006623 c 1.8481,-0.3483 4.8337,-1.78991 6.2349,-3.01046 4.7935,-4.17573 5.8548,-12.03015 2.3592,-17.46073 -2.4721,-3.84074 -6.5097,-5.98656 -11.2518,-5.97998 -4.0659,0.006 -7.1562,1.30549 -9.7851,4.11586 -1.9005,2.03161 -2.8318,3.87885 -3.3939,6.73201 -1.8331,9.30481 6.3704,17.387411 15.8367,15.6033 z"
         style="fill:#bb141a;fill-opacity:1;stroke-width:0.26458332" />
      <circle
         r="14.174109"
         cy="-65.819344"
         cx="920.93896"
         id="path23"
         style="fill:#f36f21;fill-opacity:1;stroke-width:0.18545559" />
    </g>
  </g>
</svg>
