<?xml version="1.0" encoding="UTF-8" standalone="no"?>
<!-- Created with Inkscape (http://www.inkscape.org/) -->

<svg
   xmlns:osb="http://www.openswatchbook.org/uri/2009/osb"
   xmlns:dc="http://purl.org/dc/elements/1.1/"
   xmlns:cc="http://creativecommons.org/ns#"
   xmlns:rdf="http://www.w3.org/1999/02/22-rdf-syntax-ns#"
   xmlns:svg="http://www.w3.org/2000/svg"
   xmlns="http://www.w3.org/2000/svg"
   xmlns:xlink="http://www.w3.org/1999/xlink"
   xmlns:sodipodi="http://sodipodi.sourceforge.net/DTD/sodipodi-0.dtd"
   xmlns:inkscape="http://www.inkscape.org/namespaces/inkscape"
   width="500"
   height="500"
   viewBox="0 0 132.29167 132.29167"
   version="1.1"
   id="svg8"
   inkscape:version="0.92.4 (fd57863, 2020-04-02)"
   sodipodi:docname="selfieGirl.svg"
   inkscape:export-filename="/home/brayandiazc/Code/mediesteticaprototypemobile/app/assets/images/avatars/png/girl/selfieGirl.png"
   inkscape:export-xdpi="96"
   inkscape:export-ydpi="96">
  <defs
     id="defs2">
    <clipPath
       id="clipPath28"
       clipPathUnits="userSpaceOnUse">
      <path
         inkscape:connector-curvature="0"
         id="path26"
         d="M 0,500 H 499.999 V 0 H 0 Z" />
    </clipPath>
    <clipPath
       id="clipPath36"
       clipPathUnits="userSpaceOnUse">
      <path
         inkscape:connector-curvature="0"
         id="path34"
         d="M 28.9986,421.371 H 387.413 V 66.9453 H 28.9986 Z" />
    </clipPath>
    <clipPath
       id="clipPath60"
       clipPathUnits="userSpaceOnUse">
      <path
         inkscape:connector-curvature="0"
         id="path58"
         d="m 54.039,442.299 c 0,-10.289 8.34,-18.629 18.629,-18.629 v 0 c 10.289,0 18.628,8.34 18.628,18.629 v 0 c 0,10.288 -8.339,18.629 -18.628,18.629 v 0 c -10.289,0 -18.629,-8.341 -18.629,-18.629" />
    </clipPath>
    <clipPath
       id="clipPath72"
       clipPathUnits="userSpaceOnUse">
      <path
         inkscape:connector-curvature="0"
         id="path70"
         d="M 0,500 H 499.999 V 0 H 0 Z" />
    </clipPath>
    <clipPath
       id="clipPath80"
       clipPathUnits="userSpaceOnUse">
      <path
         inkscape:connector-curvature="0"
         id="path78"
         d="M 105.095,452.863 H 258.73 v -7.62 H 105.095 Z" />
    </clipPath>
    <clipPath
       id="clipPath96"
       clipPathUnits="userSpaceOnUse">
      <path
         inkscape:connector-curvature="0"
         id="path94"
         d="M 56.0386,115.863 H 369.673 v -7.621 H 56.0386 Z" />
    </clipPath>
    <clipPath
       id="clipPath112"
       clipPathUnits="userSpaceOnUse">
      <path
         inkscape:connector-curvature="0"
         id="path110"
         d="m 105.095,441.863 h 129.081 v -7.62 H 105.095 Z" />
    </clipPath>
    <clipPath
       id="clipPath128"
       clipPathUnits="userSpaceOnUse">
      <path
         inkscape:connector-curvature="0"
         id="path126"
         d="m 87.982,102.898 h 17.587 V 83.1221 H 87.982 Z" />
    </clipPath>
    <clipPath
       id="clipPath144"
       clipPathUnits="userSpaceOnUse">
      <path
         inkscape:connector-curvature="0"
         id="path142"
         d="M 57.0734,102.162 H 78.101 V 83.8584 H 57.0734 Z" />
    </clipPath>
    <clipPath
       id="clipPath162"
       clipPathUnits="userSpaceOnUse">
      <path
         inkscape:connector-curvature="0"
         id="path160"
         d="M 52.998,130.145 H 381.227 V 416.608 H 52.998 Z" />
    </clipPath>
    <clipPath
       id="clipPath170"
       clipPathUnits="userSpaceOnUse">
      <path
         inkscape:connector-curvature="0"
         id="path168"
         d="M 43.087,447.527 H 480.675 V -232.155 H 43.087 Z" />
    </clipPath>
    <clipPath
       id="clipPath278"
       clipPathUnits="userSpaceOnUse">
      <path
         inkscape:connector-curvature="0"
         id="path276"
         d="M 52.9986,416.607 H 381.227 V 130.145 H 52.9986 Z" />
    </clipPath>
    <clipPath
       id="clipPath292"
       clipPathUnits="userSpaceOnUse">
      <path
         inkscape:connector-curvature="0"
         id="path290"
         d="M 0,0 H 499.999 V 500 H 0 Z" />
    </clipPath>
    <clipPath
       id="clipPath412"
       clipPathUnits="userSpaceOnUse">
      <path
         inkscape:connector-curvature="0"
         id="path410"
         d="M 0,500 H 499.999 V 0 H 0 Z" />
    </clipPath>
    <clipPath
       clipPathUnits="userSpaceOnUse"
       id="clipPath869">
      <path
         d="M 0,500 H 750 V 0 H 0 Z"
         id="path867"
         inkscape:connector-curvature="0" />
    </clipPath>
    <clipPath
       clipPathUnits="userSpaceOnUse"
       id="clipPath921">
      <path
         d="M 0,500 H 750 V 0 H 0 Z"
         id="path919"
         inkscape:connector-curvature="0" />
    </clipPath>
    <clipPath
       clipPathUnits="userSpaceOnUse"
       id="clipPath933">
      <path
         d="M 0,500 H 750 V 0 H 0 Z"
         id="path931"
         inkscape:connector-curvature="0" />
    </clipPath>
    <clipPath
       clipPathUnits="userSpaceOnUse"
       id="clipPath949">
      <path
         d="M 0,500 H 750 V 0 H 0 Z"
         id="path947"
         inkscape:connector-curvature="0" />
    </clipPath>
    <clipPath
       clipPathUnits="userSpaceOnUse"
       id="clipPath1153">
      <path
         d="m 283.207,276.033 h 24.307 v -54.375 h -24.307 z"
         id="path1151"
         inkscape:connector-curvature="0" />
    </clipPath>
    <clipPath
       clipPathUnits="userSpaceOnUse"
       id="clipPath1169">
      <path
         d="M 0,500 H 750 V 0 H 0 Z"
         id="path1167"
         inkscape:connector-curvature="0" />
    </clipPath>
    <clipPath
       clipPathUnits="userSpaceOnUse"
       id="clipPath1181">
      <path
         d="m 365.697,40.1795 h 30.215 v -3.2487 h -30.215 z"
         id="path1179"
         inkscape:connector-curvature="0" />
    </clipPath>
    <clipPath
       clipPathUnits="userSpaceOnUse"
       id="clipPath1257">
      <path
         d="m 365.582,45.8092 h 18.064 V 43.071 h -18.064 z"
         id="path1255"
         inkscape:connector-curvature="0" />
    </clipPath>
    <clipPath
       clipPathUnits="userSpaceOnUse"
       id="clipPath1277">
      <path
         d="M 381.815,46.0081 H 410.5 V 35.8983 h -28.685 z"
         id="path1275"
         inkscape:connector-curvature="0" />
    </clipPath>
    <clipPath
       clipPathUnits="userSpaceOnUse"
       id="clipPath1353">
      <path
         d="m 383.825,52.1982 h 17.713 v -6.6478 h -17.713 z"
         id="path1351"
         inkscape:connector-curvature="0" />
    </clipPath>
    <clipPath
       clipPathUnits="userSpaceOnUse"
       id="clipPath1533">
      <path
         d="m 357.831,285.037 h 11.826 v -38.575 h -11.826 z"
         id="path1531"
         inkscape:connector-curvature="0" />
    </clipPath>
    <clipPath
       clipPathUnits="userSpaceOnUse"
       id="clipPath1549">
      <path
         d="m 407.514,283.366 h 18.22 v -10.457 h -18.22 z"
         id="path1547"
         inkscape:connector-curvature="0" />
    </clipPath>
    <clipPath
       clipPathUnits="userSpaceOnUse"
       id="clipPath1581">
      <path
         d="M 0,500 H 750 V 0 H 0 Z"
         id="path1579"
         inkscape:connector-curvature="0" />
    </clipPath>
    <clipPath
       clipPathUnits="userSpaceOnUse"
       id="clipPath1593">
      <path
         d="m 542.643,132.486 h 20.079 V 91.0176 h -20.079 z"
         id="path1591"
         inkscape:connector-curvature="0" />
    </clipPath>
    <linearGradient
       inkscape:collect="always"
       id="linearGradient2106">
      <stop
         style="stop-color:#fff6d5;stop-opacity:1;"
         offset="0"
         id="stop2102" />
      <stop
         style="stop-color:#fff6d5;stop-opacity:0;"
         offset="1"
         id="stop2104" />
    </linearGradient>
    <linearGradient
       inkscape:collect="always"
       id="linearGradient2032">
      <stop
         style="stop-color:#ffaaaa;stop-opacity:1;"
         offset="0"
         id="stop2028" />
      <stop
         style="stop-color:#ffaaaa;stop-opacity:0;"
         offset="1"
         id="stop2030" />
    </linearGradient>
    <linearGradient
       id="linearGradient1925"
       osb:paint="gradient">
      <stop
         style="stop-color:#ff0000;stop-opacity:1;"
         offset="0"
         id="stop1921" />
      <stop
         style="stop-color:#ff0000;stop-opacity:0;"
         offset="1"
         id="stop1923" />
    </linearGradient>
    <linearGradient
       osb:paint="gradient"
       id="linearGradient1722">
      <stop
         id="stop1898"
         offset="0"
         style="stop-color:#0000ff;stop-opacity:1;" />
      <stop
         id="stop1900"
         offset="1"
         style="stop-color:#1139ff;stop-opacity:0;" />
    </linearGradient>
    <linearGradient
       id="linearGradient1722-6"
       osb:paint="gradient">
      <stop
         style="stop-color:#ff00ff;stop-opacity:1;"
         offset="0"
         id="stop1718" />
      <stop
         style="stop-color:#1139ff;stop-opacity:0;"
         offset="1"
         id="stop1720" />
    </linearGradient>
    <clipPath
       clipPathUnits="userSpaceOnUse"
       id="clipPath2534">
      <rect
         style="fill:none;fill-opacity:1;stroke:#000000;stroke-width:1.74460006;stroke-miterlimit:4;stroke-dasharray:none;stroke-opacity:1"
         id="rect2536"
         width="132.29167"
         height="132.29167"
         x="-3.3764652e-06"
         y="164.70831" />
    </clipPath>
    <clipPath
       clipPathUnits="userSpaceOnUse"
       id="clipPath2775">
      <rect
         y="309.03384"
         x="11.485847"
         height="132.29167"
         width="132.29167"
         id="rect2777"
         style="display:inline;fill:none;fill-opacity:1;stroke:none;stroke-width:1.74460006;stroke-miterlimit:4;stroke-dasharray:none;stroke-opacity:1" />
    </clipPath>
    <clipPath
       clipPathUnits="userSpaceOnUse"
       id="clipPath2775-1">
      <rect
         y="309.03384"
         x="11.485847"
         height="132.29167"
         width="132.29167"
         id="rect2777-3"
         style="display:inline;fill:none;fill-opacity:1;stroke:none;stroke-width:1.74460006;stroke-miterlimit:4;stroke-dasharray:none;stroke-opacity:1" />
    </clipPath>
    <clipPath
       clipPathUnits="userSpaceOnUse"
       id="clipPath3098">
      <circle
         style="display:inline;fill:none;fill-opacity:1;stroke:#000000;stroke-width:0.26058042;stroke-miterlimit:4;stroke-dasharray:none;stroke-opacity:1"
         id="circle3100"
         cx="94.840401"
         cy="400.03839"
         r="17.067627" />
    </clipPath>
    <clipPath
       clipPathUnits="userSpaceOnUse"
       id="clipPath3121-7">
      <circle
         style="fill:none;fill-opacity:1;stroke:#000000;stroke-width:0.53201234;stroke-miterlimit:4;stroke-dasharray:none;stroke-opacity:1"
         id="circle3123-0"
         cx="77.631683"
         cy="375.17969"
         r="50.615406" />
    </clipPath>
    <clipPath
       clipPathUnits="userSpaceOnUse"
       id="clipPath1167">
      <ellipse
         style="fill:none;fill-opacity:1;stroke:#fefefe;stroke-width:0.63966948;stroke-miterlimit:4;stroke-dasharray:none;stroke-opacity:1"
         id="ellipse1169"
         cx="351.95172"
         cy="746.68176"
         rx="28.570381"
         ry="28.570379" />
    </clipPath>
    <radialGradient
       inkscape:collect="always"
       xlink:href="#linearGradient2032"
       id="radialGradient2034"
       cx="189.46056"
       cy="101.07083"
       fx="189.46056"
       fy="101.07083"
       r="12.567709"
       gradientUnits="userSpaceOnUse"
       gradientTransform="matrix(0.26794942,-0.99999927,0.99999873,0.26794927,37.662869,261.93392)" />
    <radialGradient
       inkscape:collect="always"
       xlink:href="#linearGradient2106"
       id="radialGradient2108"
       cx="187.5903"
       cy="108.99903"
       fx="187.5903"
       fy="108.99903"
       r="4.2622543"
       gradientUnits="userSpaceOnUse"
       gradientTransform="matrix(0.82031838,-2.795271e-6,3.9610946e-6,1.1618365,33.706098,-17.639511)" />
    <clipPath
       clipPathUnits="userSpaceOnUse"
       id="clipPath2775-3">
      <rect
         y="309.03384"
         x="11.485847"
         height="132.29167"
         width="132.29167"
         id="rect2777-6"
         style="display:inline;fill:none;fill-opacity:1;stroke:none;stroke-width:1.74460006;stroke-miterlimit:4;stroke-dasharray:none;stroke-opacity:1" />
    </clipPath>
  </defs>
  <sodipodi:namedview
     id="base"
     pagecolor="#ffffff"
     bordercolor="#666666"
     borderopacity="1.0"
     inkscape:pageopacity="0.0"
     inkscape:pageshadow="2"
     inkscape:zoom="0.49497475"
     inkscape:cx="434.03237"
     inkscape:cy="22.767059"
     inkscape:document-units="px"
     inkscape:current-layer="layer1"
     showgrid="false"
     units="px"
     inkscape:window-width="1600"
     inkscape:window-height="836"
     inkscape:window-x="0"
     inkscape:window-y="27"
     inkscape:window-maximized="1" />
  <metadata
     id="metadata5">
    <rdf:RDF>
      <cc:Work
         rdf:about="">
        <dc:format>image/svg+xml</dc:format>
        <dc:type
           rdf:resource="http://purl.org/dc/dcmitype/StillImage" />
        <dc:title></dc:title>
      </cc:Work>
    </rdf:RDF>
  </metadata>
  <g
     inkscape:label="Layer 1"
     inkscape:groupmode="layer"
     id="layer1"
     transform="translate(0,-164.70836)">
    <rect
       style="fill:#cb3131;fill-opacity:1;stroke-width:0.23267381"
       id="rect949"
       width="132.29167"
       height="132.29167"
       x="-8.7646487e-07"
       y="164.70836" />
    <g
       id="g286"
       transform="matrix(0.40671072,0,0,-0.40671072,-85.330012,330.44117)">
      <g
         id="g288"
         clip-path="url(#clipPath292)">
        <g
           id="g294"
           transform="translate(375.062,207.498)">
          <path
             d="m 0,0 c 5.11,0.681 12.606,6.474 15.673,10.222 7.155,8.858 7.496,18.739 8.178,29.302 6.473,2.384 12.265,10.562 10.903,17.377 -0.682,4.089 -4.43,6.814 -5.792,10.222 -1.704,3.747 -2.045,7.836 -2.386,11.243 -0.681,6.474 1.023,15.333 -3.066,20.784 -3.067,4.089 -7.156,2.726 -10.222,5.111 -2.045,1.364 -2.045,6.815 -3.066,9.882 -2.727,8.177 -7.156,14.651 -16.355,16.014 -9.541,1.022 -15.333,-4.43 -23.17,-8.859 -12.947,-7.837 -35.094,-8.519 -29.983,-28.621 3.748,-15.674 -12.267,-23.51 -22.829,-31.006 -6.133,-4.43 -14.311,-10.903 -17.377,-17.718 -2.726,-5.792 -1.022,-11.585 1.363,-17.377 -6.814,-1.703 -12.947,-12.266 -14.991,-18.399 -2.727,-7.155 -2.045,-15.333 0.34,-22.828 5.793,-17.036 22.488,-25.555 39.865,-24.533 12.266,0.682 28.962,9.201 36.116,18.741 z"
             style="fill:#dabc43;fill-opacity:1;fill-rule:nonzero;stroke:none"
             id="path296"
             inkscape:connector-curvature="0" />
        </g>
        <g
           id="g298"
           transform="translate(381.7466,262.127)">
          <path
             d="m 0,0 c 4.979,3.503 10.51,0.185 11.432,-5.899 1.29,-8.85 -11.801,-13.276 -16.963,-6.269 z"
             style="fill:#ffd9cd;fill-opacity:1;fill-rule:nonzero;stroke:none"
             id="path300"
             inkscape:connector-curvature="0" />
        </g>
        <g
           id="g302"
           transform="translate(331.229,260.0991)">
          <path
             d="m 0,0 c -4.794,3.134 -8.85,-2.397 -8.481,-7.007 0.737,-8.112 9.771,-11.245 15.856,-6.637 z"
             style="fill:#ffbaac;fill-opacity:1;fill-rule:nonzero;stroke:none"
             id="path304"
             inkscape:connector-curvature="0" />
        </g>
        <g
           id="g306"
           transform="translate(368.4165,304.5474)">
          <path
             d="m 0,0 c -0.922,0 -2.895,-0.015 -2.895,-0.015 0,0 -1.291,1.844 -2.397,2.581 -6.268,3.688 -15.487,-1.843 -21.018,-4.609 -4.198,-2.238 -8.179,-5.752 -11.468,-9.493 0.493,1.602 1.052,3.2 1.697,4.791 5.531,13.828 12.369,25.915 27.026,22.044 7.744,-1.936 17.223,-11.257 20.818,-18.725 0.385,-0.809 0.713,-1.643 1.008,-2.491 -1.913,1.804 -4.083,3.336 -6.079,4.243 C 4.664,-0.568 2.396,0 0,0"
             style="fill:#c8ad4e;fill-opacity:1;fill-rule:nonzero;stroke:none"
             id="path308"
             inkscape:connector-curvature="0" />
        </g>
        <g
           id="g310"
           transform="translate(342.107,302.5044)">
          <path
             d="m 0,0 c 5.53,2.766 14.75,8.297 21.018,4.609 1.106,-0.737 2.397,-2.581 2.397,-2.581 0,0 1.973,0.015 2.895,0.015 2.396,0 4.664,-0.568 6.692,-1.674 1.995,-0.907 4.166,-2.439 6.079,-4.243 1.825,-5.236 2.072,-11.117 2.311,-16.591 0.276,-3.042 0.552,-8.297 -1.107,-10.51 l 2.213,-5.254 c -1.84,-11.59 -9.334,-25.922 -20.226,-31.759 0.641,-4.137 1.249,-9.343 1.973,-13.32 0.829,-4.149 1.659,-11.339 6.914,-11.339 2.212,0 3.871,1.106 5.808,1.936 l -3.32,-13.275 c -3.042,-12.722 -11.615,-28.485 -26.548,-28.485 -7.745,0 -13.552,4.977 -16.594,11.891 -2.766,6.085 -0.276,13.552 0,19.913 10.232,1.106 12.998,8.296 13.274,17.423 0.16,4.802 0.037,9.602 -0.251,14.35 -10.54,5.564 -15.512,16.902 -16.895,28.517 -1.432,10.501 -1.209,20.795 1.898,30.884 C -8.18,-5.752 -4.198,-2.238 0,0"
             style="fill:#ffd9cd;fill-opacity:1;fill-rule:nonzero;stroke:none"
             id="path312"
             inkscape:connector-curvature="0" />
        </g>
        <g
           id="g314"
           transform="translate(348.7437,275.2168)">
          <path
             d="m 0,0 c 0.141,-1.142 0.654,-2.143 1.058,-3.221 0.205,-0.539 0.392,-1.1 0.474,-1.71 0.089,-0.603 0.059,-1.278 -0.21,-1.888 l 0.013,0.031 c -0.549,-1.371 -1.625,-2.092 -2.464,-2.94 -0.865,-0.8 -1.723,-1.679 -1.781,-2.659 -0.101,-0.991 0.852,-1.845 1.764,-2.584 l 1.443,-1.115 c 0.48,-0.379 0.974,-0.764 1.362,-1.244 -0.981,0.732 -2.109,1.19 -3.158,1.86 -0.529,0.326 -1.046,0.695 -1.507,1.179 -0.233,0.236 -0.436,0.527 -0.594,0.855 -0.147,0.344 -0.206,0.707 -0.218,1.068 -0.007,0.747 0.323,1.426 0.712,1.957 0.393,0.538 0.843,0.987 1.297,1.41 0.887,0.834 1.902,1.598 2.317,2.514 l 0.013,0.032 C 0.961,-5.59 0.77,-4.475 0.505,-3.392 0.251,-2.306 -0.119,-1.154 0,0"
             style="fill:#e86666;fill-opacity:1;fill-rule:nonzero;stroke:none"
             id="path316"
             inkscape:connector-curvature="0" />
        </g>
        <g
           id="g318"
           transform="translate(361.8345,253.6455)">
          <path
             d="m 0,0 c -0.332,-1.727 -1.279,-3.369 -2.638,-4.576 -1.345,-1.222 -3.067,-2.035 -4.887,-2.314 -1.815,-0.275 -3.767,0.063 -5.314,1.085 -1.569,0.999 -2.582,2.641 -3.017,4.33 0.807,-1.56 1.962,-2.879 3.416,-3.659 1.448,-0.775 3.145,-1.026 4.771,-0.767 C -4.396,-5.419 -1.412,-3.219 0,0"
             style="fill:#e86666;fill-opacity:1;fill-rule:nonzero;stroke:none"
             id="path320"
             inkscape:connector-curvature="0" />
        </g>
        <g
           id="g322"
           transform="translate(374.187,287.5703)">
          <path
             d="m 0,0 c -0.437,0.648 -0.941,1.156 -1.503,1.583 -0.565,0.419 -1.175,0.771 -1.825,1.04 -0.644,0.285 -1.325,0.488 -2.026,0.641 -0.704,0.145 -1.423,0.228 -2.205,0.239 0.681,0.395 1.493,0.547 2.287,0.537 0.8,-0.003 1.594,-0.189 2.336,-0.498 C -2.201,3.216 -1.509,2.762 -0.972,2.15 -0.433,1.551 -0.042,0.787 0,0"
             style="fill:#451c0c;fill-opacity:1;fill-rule:nonzero;stroke:none"
             id="path324"
             inkscape:connector-curvature="0" />
        </g>
        <g
           id="g326"
           transform="translate(344.5034,292.5483)">
          <path
             d="m 0,0 c -0.845,0.055 -1.639,0.031 -2.422,-0.06 -0.778,-0.1 -1.543,-0.254 -2.261,-0.516 -0.722,-0.246 -1.396,-0.601 -1.986,-1.072 -0.587,-0.477 -1.066,-1.093 -1.443,-1.855 -0.037,0.85 0.306,1.735 0.895,2.41 0.582,0.689 1.377,1.16 2.201,1.459 0.834,0.282 1.71,0.408 2.574,0.351 C -1.584,0.666 -0.722,0.453 0,0"
             style="fill:#451c0c;fill-opacity:1;fill-rule:nonzero;stroke:none"
             id="path328"
             inkscape:connector-curvature="0" />
        </g>
        <g
           id="g330"
           transform="translate(366.5357,274.0059)">
          <path
             d="m 0,0 c 0,-2.049 0.888,-3.711 1.982,-3.711 1.095,0 1.983,1.662 1.983,3.711 0,2.048 -0.888,3.71 -1.983,3.71 C 0.888,3.71 0,2.048 0,0"
             style="fill:#000000;fill-opacity:1;fill-rule:nonzero;stroke:none"
             id="path332"
             inkscape:connector-curvature="0" />
        </g>
        <g
           id="g334"
           transform="translate(341.0923,274.0059)">
          <path
             d="m 0,0 c 0,-2.049 0.888,-3.711 1.982,-3.711 1.095,0 1.983,1.662 1.983,3.711 0,2.048 -0.888,3.71 -1.983,3.71 C 0.888,3.71 0,2.048 0,0"
             style="fill:#000000;fill-opacity:1;fill-rule:nonzero;stroke:none"
             id="path336"
             inkscape:connector-curvature="0" />
        </g>
        <g
           id="g338"
           transform="translate(366.2593,304.5327)">
          <path
             d="m 0,0 c 4.057,2.581 9.035,3.687 10.141,-3.319 1.291,-7.928 0.369,-15.672 0.369,-23.599 0,-5.532 1.105,-12.722 6.268,-15.672 4.979,-2.95 11.616,-4.056 16.962,-1.475 -4.24,0.185 -8.665,2.397 -11.615,5.716 -2.95,3.318 -2.95,8.297 -2.95,12.537 0,4.609 0.184,9.403 0.554,14.012 0.368,3.872 1.29,8.112 -0.185,11.984 C 18.253,4.056 13.091,7.928 8.666,7.19 6.638,6.822 -0.553,1.843 0.369,0.184 Z"
             style="fill:#f7d359;fill-opacity:1;fill-rule:nonzero;stroke:none"
             id="path340"
             inkscape:connector-curvature="0" />
        </g>
        <g
           id="g342"
           transform="translate(366.0757,304.3481)">
          <path
             d="m 0,0 c 0,7.006 -3.503,13.828 -11.247,14.381 -5.163,0.369 -8.297,-1.844 -10.509,-6.269 -2.028,-4.056 -3.319,-8.849 -4.241,-13.275 -1.844,-9.956 -2.766,-20.096 -6.638,-29.315 -4.055,-9.771 -9.956,-17.884 -18.252,-24.337 -5.9,-4.425 -12.538,-6.822 -19.544,-8.481 -7.375,-1.66 -13.459,-5.715 -16.409,-12.538 -0.922,10.142 9.219,13.644 16.041,17.885 8.296,4.979 16.962,10.51 21.571,19.175 4.425,8.296 8.297,17.883 10.509,27.103 2.582,10.324 3.503,20.834 6.638,30.974 2.339,7.277 6.379,16.093 13.841,19.406 C -10.887,37.972 2.734,17.637 3.502,14.565 4.24,12.168 6.637,6.637 5.347,4.241 Z"
             style="fill:#f7d359;fill-opacity:1;fill-rule:nonzero;stroke:none"
             id="path344"
             inkscape:connector-curvature="0" />
        </g>
        <g
           id="g346"
           transform="translate(432.1626,-31.0537)">
          <path
             d="m 0,0 c -0.473,11.82 -27.896,90.307 -31.678,94.563 -2.837,3.308 -3.782,1.89 -8.983,1.417 -13.239,-1.417 -26.478,-1.417 -39.716,-1.417 -11.348,0 -27.895,-1.892 -38.77,1.89 -0.473,-9.456 -23.159,-90.592 -24.105,-96.738 z"
             style="fill:#92a8c1;fill-opacity:1;fill-rule:nonzero;stroke:none"
             id="path348"
             inkscape:connector-curvature="0" />
        </g>
        <g
           id="g350"
           transform="translate(314.0826,151.2275)">
          <path
             d="m 0,0 c -4.425,-13.828 -9.127,-27.656 -14.104,-41.207 -2.213,-6.361 -11.339,-36.506 -19.36,-18.53 -5.255,12.169 6.914,39.271 14.381,70.246 h 0.277 z"
             style="fill:#ffd9cd;fill-opacity:1;fill-rule:nonzero;stroke:none"
             id="path352"
             inkscape:connector-curvature="0" />
        </g>
        <g
           id="g354"
           transform="translate(314.2661,151.6885)">
          <path
             d="m 0,0 c -3.687,0.553 -7.374,1.106 -11.062,2.213 -4.609,1.289 -11.799,3.871 -15.119,7.743 6.454,6.638 9.956,15.671 14.566,23.414 3.687,6.27 11.622,19.972 15.58,20.927 1.11,0.268 7.282,2.121 8.942,-3.227 0.921,-2.581 0.738,-6.084 0.553,-8.665 -0.553,-4.056 -1.476,-9.771 -3.872,-13.09 z"
             style="fill:#14375c;fill-opacity:1;fill-rule:nonzero;stroke:none"
             id="path356"
             inkscape:connector-curvature="0" />
        </g>
        <g
           id="g358"
           transform="translate(293.8941,119.6992)">
          <path
             d="m 0,0 c -7.468,8.573 -20.896,36.782 -25.997,48.398 -1.988,4.53 -3.595,14.105 -8.85,15.764 -7.743,2.766 -6.084,-6.638 -4.977,-11.062 1.383,-6.084 2.765,-12.169 4.425,-18.253 3.042,-12.169 7.19,-24.061 11.338,-35.952 2.766,-8.297 6.084,-16.594 9.403,-24.615 1.106,-2.489 2.489,-8.019 5.807,-8.019 3.872,0 4.425,7.467 4.425,10.509 z"
             style="fill:#ffd9cd;fill-opacity:1;fill-rule:nonzero;stroke:none"
             id="path360"
             inkscape:connector-curvature="0" />
        </g>
        <g
           id="g362"
           transform="translate(262.3658,178.3301)">
          <path
             d="m 0,0 c 5.809,0 7.468,2.489 9.956,7.467 1.659,2.765 3.319,6.914 5.255,9.403 1.935,2.212 6.775,3.734 9.817,4.84 0,-2.489 0.139,-9.68 4.287,-5.255 1.936,2.212 0.692,8.932 -0.552,9.265 -3.596,0.552 -8.851,-1.107 -12.169,-2.49 3.837,3.475 8.578,6 12.726,6.831 2.49,0.552 12.993,-1.991 9.951,2.019 -2.411,3.178 -9.956,2.489 -13.274,1.66 -4.148,-0.83 -8.95,-4.193 -12.822,-6.129 5.16,3.39 9.365,8.203 14.896,9.586 2.489,0.553 13.857,1.877 11.477,4.01 -3.354,3.004 -11.339,1.383 -14.934,0.276 -4.978,-1.659 -9.127,-6.637 -13.551,-9.679 4.148,5.255 5.368,11.497 10.899,15.369 2.488,1.659 6.523,3.714 1.822,4.543 -3.318,0.83 -5.807,-1.659 -8.02,-3.871 C 11.615,42.59 8.573,36.782 5.255,30.975 1.66,25.443 -2.488,18.806 -5.53,12.722 -8.296,6.914 -11.062,4.978 -8.573,-1.106 Z"
             style="fill:#ffd9cd;fill-opacity:1;fill-rule:nonzero;stroke:none"
             id="path364"
             inkscape:connector-curvature="0" />
        </g>
        <g
           id="g366"
           transform="translate(436.8228,179.6933)">
          <path
             d="m 0,0 c -3.628,-6.479 -8.812,-16.068 -16.328,-18.401 -14.514,-4.407 -5.443,21.252 -0.519,25.659 z"
             style="fill:#14375c;fill-opacity:1;fill-rule:nonzero;stroke:none"
             id="path368"
             inkscape:connector-curvature="0" />
        </g>
        <g
           id="g370"
           transform="translate(429.5659,196.0224)">
          <path
             d="m 0,0 c 0,0 17.883,-10.886 27.213,-14.515 l 0.259,1.815 c 9.59,20.394 21.054,53.889 24.534,69.346 1.099,4.882 8.64,10.739 10.455,2.186 0.777,-3.11 -12.182,-106.479 -24.362,-104.447 -8.28,1.382 -16.587,5.961 -24.104,9.329 -3.629,1.556 -30.323,15.552 -28.768,17.365 z"
             style="fill:#ffd9cd;fill-opacity:1;fill-rule:nonzero;stroke:none"
             id="path372"
             inkscape:connector-curvature="0" />
        </g>
        <g
           id="g374"
           transform="translate(437.9986,343.2588)">
          <path
             d="m 0,0 c -1.22,-0.012 -2.201,-1.013 -2.188,-2.235 l 0.609,-57.983 c 0.058,-5.532 4.368,-5.487 5.589,-5.474 l 23.426,3.566 c 1.222,0.013 2.203,1.014 2.189,2.236 l 2.744,54.699 C 32.311,0.34 28.003,0.295 26.78,0.282 Z"
             style="fill:#606060;fill-opacity:1;fill-rule:nonzero;stroke:none"
             id="path376"
             inkscape:connector-curvature="0" />
        </g>
        <g
           id="g378"
           transform="translate(441.3531,339.9761)">
          <path
             d="m 0,0 c -1.221,-0.013 -2.203,-1.015 -2.189,-2.236 l 0.61,-57.985 c 0.012,-1.22 1.014,-2.201 2.234,-2.189 l 26.781,0.284 c 1.222,0.013 2.201,1.013 2.188,2.234 l -0.609,57.984 c -0.013,1.222 -1.013,2.201 -2.237,2.189 z"
             style="fill:#000000;fill-opacity:1;fill-rule:nonzero;stroke:none"
             id="path380"
             inkscape:connector-curvature="0" />
        </g>
        <g
           id="g382"
           transform="translate(455.3501,329.7886)">
          <path
             d="m 0,0 c -1.468,-0.016 -2.645,-1.245 -2.628,-2.745 0.017,-1.5 1.218,-2.703 2.686,-2.688 1.467,0.016 2.644,1.245 2.63,2.744 C 2.671,-1.189 1.469,0.015 0,0"
             style="fill:#606060;fill-opacity:1;fill-rule:nonzero;stroke:none"
             id="path384"
             inkscape:connector-curvature="0" />
        </g>
        <g
           id="g386"
           transform="translate(483.3413,251.1694)">
          <path
             d="m 0,0 c -9.373,-0.721 -12.498,11.776 -15.862,18.747 -1.683,3.124 -2.445,4.687 -5.81,5.409 -3.364,0.479 -4.326,0.96 -7.21,-1.203 -1.923,-1.442 -2.233,-1.609 -4.637,-1.849 -3.845,-0.481 -3.492,2.473 -1.202,3.604 1.989,0.983 4.198,3.652 7.323,4.374 2.882,0.72 7.69,-0.722 10.575,-1.202 -1.683,2.162 -4.128,5.144 -6.532,6.105 -2.644,0.961 -3.845,0 -6.49,-0.961 -1.922,-0.722 -13.417,-4.664 -11.013,0.143 1.682,3.125 11.055,4.807 13.939,5.768 4.326,1.202 9.111,-1.627 12.236,-5.232 -0.492,0.536 -7.636,9.777 -9.505,10.038 -2.619,0.364 -7.584,0.844 -9.988,2.286 -1.682,1.202 -5,1.561 -3.077,3.483 2.884,2.404 17.477,-1.733 19.228,-2.884 2.418,-1.59 5.031,-7.821 7.193,-9.985 -1.922,4.807 -4.696,11.678 -7.581,15.763 -1.201,1.443 -10.349,10.951 -5.861,12.729 2.904,1.151 10.815,-9.614 12.016,-12.257 2.163,-5.048 3.606,-10.336 6.009,-15.383 C -3.125,30.764 0,23.793 3.364,17.064 5.768,12.017 11.296,3.846 6.008,-0.721 Z"
             style="fill:#ffd9cd;fill-opacity:1;fill-rule:nonzero;stroke:none"
             id="path388"
             inkscape:connector-curvature="0" />
        </g>
        <g
           id="g390"
           transform="translate(392.0718,180.4492)">
          <path
             d="m 0,0 c 2.581,-3.134 5.715,-5.531 8.85,-8.111 4.24,-3.504 9.587,-9.22 14.75,-11.247 -0.738,2.58 0.921,6.268 1.659,8.665 1.105,3.318 2.345,6.854 4.24,9.772 6.822,10.509 15.252,12.22 15.252,12.22 -6.269,3.134 -12.67,10.826 -18.57,14.883 -4.61,3.318 -10.141,8.665 -16.04,9.402"
             style="fill:#1e4f8a;fill-opacity:1;fill-rule:nonzero;stroke:none"
             id="path392"
             inkscape:connector-curvature="0" />
        </g>
        <g
           id="g394"
           transform="translate(407.5591,56.3681)">
          <path
             d="m 0,0 c -1.659,7.19 -3.319,14.381 -7.19,21.571 -2.766,4.978 -11.063,11.063 -10.51,17.147 0.554,3.318 3.319,3.872 3.872,7.19 1.106,4.979 -0.553,3.872 -2.766,7.191 -8.297,11.615 -1.106,22.677 1.659,34.846 3.32,12.722 6.638,24.337 12.722,35.4 4.425,7.743 9.956,17.699 7.744,27.102 -2.213,8.85 -14.381,11.063 -22.677,10.509 -3.873,0 -8.297,-0.553 -12.169,-3.318 -3.873,-2.766 -6.638,-8.297 -9.956,-12.722 -7.191,-9.403 -12.168,-19.359 -18.806,-28.762 -5.531,10.509 -9.403,21.572 -12.169,32.634 -6.296,-1.439 -14.435,3.265 -19.082,0.829 -11.615,-6.084 -2.454,-22.333 -3.56,-26.758 -3.319,-11.062 -8.333,-12.236 -9.438,-23.851 -1.107,-12.722 7.19,-22.678 6.637,-34.294 -1.107,-12.168 -0.553,-22.678 0.553,-35.4 0.553,-4.977 -0.553,-9.956 -1.66,-14.38 -0.553,-3.872 -4.425,-13.275 -2.765,-16.594 0,0 37.554,-20.143 97.902,0.554 z"
             style="fill:#1e4f8a;fill-opacity:1;fill-rule:nonzero;stroke:none"
             id="path396"
             inkscape:connector-curvature="0" />
        </g>
        <g
           id="g398"
           transform="translate(322.0103,86.2363)">
          <path
             d="m 0,0 c 2.206,-1.171 4.612,-1.88 7.037,-2.399 2.434,-0.509 4.904,-0.813 7.381,-1.022 2.479,-0.216 4.955,-0.35 7.451,-0.428 2.495,-0.108 4.986,-0.276 7.474,-0.466 4.976,-0.369 9.931,-0.908 14.894,-1.232 1.24,-0.082 2.486,-0.155 3.719,-0.207 0.624,-0.027 1.232,-0.067 1.825,-0.019 l 1.852,0.137 c 1.245,0.098 2.5,0.2 3.779,0.178 1.268,-0.047 2.608,-0.087 3.878,-0.851 0.149,-0.114 0.301,-0.233 0.44,-0.354 l 0.339,-0.366 c 0.22,-0.256 0.427,-0.532 0.607,-0.843 0.161,-0.326 0.331,-0.678 0.328,-1.118 0.012,-0.432 -0.173,-0.874 -0.438,-1.176 -0.541,-0.605 -1.197,-0.846 -1.816,-1.07 -0.627,-0.21 -1.257,-0.344 -1.886,-0.454 -1.257,-0.216 -2.512,-0.324 -3.754,-0.428 -1.218,-0.106 -2.483,-0.25 -3.734,-0.313 -4.999,-0.309 -10.013,-0.261 -14.996,0.091 -2.492,0.167 -4.982,0.401 -7.46,0.66 l -7.441,0.752 c -4.954,0.568 -9.917,1.334 -14.685,2.816 4.827,-1.262 9.773,-1.926 14.733,-2.328 l 7.452,-0.611 c 2.482,-0.215 4.961,-0.4 7.446,-0.52 4.965,-0.231 9.94,-0.306 14.89,0.049 1.239,0.069 2.45,0.215 3.713,0.334 1.241,0.111 2.471,0.224 3.67,0.439 0.598,0.108 1.19,0.239 1.743,0.43 0.542,0.187 1.091,0.44 1.378,0.784 0.283,0.324 0.252,0.706 -0.008,1.182 -0.134,0.228 -0.302,0.452 -0.491,0.667 l -0.298,0.318 -0.288,0.23 c -0.881,0.554 -2.147,0.671 -3.34,0.704 -1.214,0.03 -2.449,-0.062 -3.687,-0.153 -0.621,-0.045 -1.242,-0.098 -1.878,-0.128 -0.65,-0.046 -1.288,0 -1.909,0.03 -1.256,0.061 -2.498,0.141 -3.745,0.232 -4.983,0.37 -9.943,0.888 -14.898,1.374 -2.478,0.236 -4.959,0.448 -7.441,0.602 -2.483,0.125 -4.985,0.299 -7.467,0.571 -2.481,0.285 -4.958,0.665 -7.39,1.25 C 4.554,-2.07 2.154,-1.266 0,0"
             style="fill:#14375c;fill-opacity:1;fill-rule:nonzero;stroke:none"
             id="path400"
             inkscape:connector-curvature="0" />
        </g>
        <g
           id="g402"
           transform="translate(321.6411,74.0674)">
          <path
             d="m 0,0 c 2.424,-1.578 4.917,-3.047 7.544,-4.223 2.614,-1.199 5.347,-2.11 8.132,-2.833 2.788,-0.71 5.601,-1.352 8.427,-1.966 2.811,-0.667 5.642,-1.119 8.498,-1.494 2.847,-0.382 5.712,-0.652 8.584,-0.696 2.871,-0.047 5.737,0.141 8.577,0.523 2.841,0.382 5.641,1.086 8.309,2.144 2.685,1.019 5.219,2.423 7.566,4.12 -2.207,-1.876 -4.721,-3.387 -7.379,-4.573 -2.671,-1.166 -5.5,-1.968 -8.375,-2.451 -5.762,-0.986 -11.654,-0.787 -17.413,-0.057 -2.873,0.407 -5.758,0.9 -8.567,1.597 -2.815,0.659 -5.648,1.282 -8.433,2.116 -2.787,0.819 -5.536,1.826 -8.136,3.131 C 4.75,-3.324 2.295,-1.763 0,0"
             style="fill:#14375c;fill-opacity:1;fill-rule:nonzero;stroke:none"
             id="path404"
             inkscape:connector-curvature="0" />
        </g>
      </g>
    </g>
  </g>
</svg>
